<svg xmlns="http://www.w3.org/2000/svg" viewBox="-1090 -1090 2180 2180" font-family="sans-serif">
<rect x="-1090" y="-1090" width="2180" height="2180" fill="#ffffff"/>
<rect x="-1000" y="-1000" width="2000" height="2000" fill="#f7f5ec" stroke="#333" stroke-width="3"/>
<g stroke="#c9c9bb" stroke-width="0.6">
<line x1="-1000" y1="-1000" x2="-1000" y2="1000"/><line x1="-1000" y1="-1000" x2="1000" y2="-1000"/>
<line x1="-900" y1="-1000" x2="-900" y2="1000"/><line x1="-1000" y1="-900" x2="1000" y2="-900"/>
<line x1="-800" y1="-1000" x2="-800" y2="1000"/><line x1="-1000" y1="-800" x2="1000" y2="-800"/>
<line x1="-700" y1="-1000" x2="-700" y2="1000"/><line x1="-1000" y1="-700" x2="1000" y2="-700"/>
<line x1="-600" y1="-1000" x2="-600" y2="1000"/><line x1="-1000" y1="-600" x2="1000" y2="-600"/>
<line x1="-500" y1="-1000" x2="-500" y2="1000"/><line x1="-1000" y1="-500" x2="1000" y2="-500"/>
<line x1="-400" y1="-1000" x2="-400" y2="1000"/><line x1="-1000" y1="-400" x2="1000" y2="-400"/>
<line x1="-300" y1="-1000" x2="-300" y2="1000"/><line x1="-1000" y1="-300" x2="1000" y2="-300"/>
<line x1="-200" y1="-1000" x2="-200" y2="1000"/><line x1="-1000" y1="-200" x2="1000" y2="-200"/>
<line x1="-100" y1="-1000" x2="-100" y2="1000"/><line x1="-1000" y1="-100" x2="1000" y2="-100"/>
<line x1="0" y1="-1000" x2="0" y2="1000"/><line x1="-1000" y1="0" x2="1000" y2="0"/>
<line x1="100" y1="-1000" x2="100" y2="1000"/><line x1="-1000" y1="100" x2="1000" y2="100"/>
<line x1="200" y1="-1000" x2="200" y2="1000"/><line x1="-1000" y1="200" x2="1000" y2="200"/>
<line x1="300" y1="-1000" x2="300" y2="1000"/><line x1="-1000" y1="300" x2="1000" y2="300"/>
<line x1="400" y1="-1000" x2="400" y2="1000"/><line x1="-1000" y1="400" x2="1000" y2="400"/>
<line x1="500" y1="-1000" x2="500" y2="1000"/><line x1="-1000" y1="500" x2="1000" y2="500"/>
<line x1="600" y1="-1000" x2="600" y2="1000"/><line x1="-1000" y1="600" x2="1000" y2="600"/>
<line x1="700" y1="-1000" x2="700" y2="1000"/><line x1="-1000" y1="700" x2="1000" y2="700"/>
<line x1="800" y1="-1000" x2="800" y2="1000"/><line x1="-1000" y1="800" x2="1000" y2="800"/>
<line x1="900" y1="-1000" x2="900" y2="1000"/><line x1="-1000" y1="900" x2="1000" y2="900"/>
<line x1="1000" y1="-1000" x2="1000" y2="1000"/><line x1="-1000" y1="1000" x2="1000" y2="1000"/>
</g>
<g stroke="#8a8a76" stroke-width="1.2">
<line x1="-1000" y1="-1000" x2="-1000" y2="1000"/><line x1="-1000" y1="-1000" x2="1000" y2="-1000"/>
<line x1="-800" y1="-1000" x2="-800" y2="1000"/><line x1="-1000" y1="-800" x2="1000" y2="-800"/>
<line x1="-600" y1="-1000" x2="-600" y2="1000"/><line x1="-1000" y1="-600" x2="1000" y2="-600"/>
<line x1="-400" y1="-1000" x2="-400" y2="1000"/><line x1="-1000" y1="-400" x2="1000" y2="-400"/>
<line x1="-200" y1="-1000" x2="-200" y2="1000"/><line x1="-1000" y1="-200" x2="1000" y2="-200"/>
<line x1="0" y1="-1000" x2="0" y2="1000"/><line x1="-1000" y1="0" x2="1000" y2="0"/>
<line x1="200" y1="-1000" x2="200" y2="1000"/><line x1="-1000" y1="200" x2="1000" y2="200"/>
<line x1="400" y1="-1000" x2="400" y2="1000"/><line x1="-1000" y1="400" x2="1000" y2="400"/>
<line x1="600" y1="-1000" x2="600" y2="1000"/><line x1="-1000" y1="600" x2="1000" y2="600"/>
<line x1="800" y1="-1000" x2="800" y2="1000"/><line x1="-1000" y1="800" x2="1000" y2="800"/>
<line x1="1000" y1="-1000" x2="1000" y2="1000"/><line x1="-1000" y1="1000" x2="1000" y2="1000"/>
</g>
<g font-size="26" fill="#445">
<text x="-1026" y="-1018">-1000</text>
<text x="-1026" y="1046">-1000</text>
<text x="-1076" y="-992">-1000</text>
<text x="1016" y="-992">-1000</text>
<text x="-826" y="-1018">-800</text>
<text x="-826" y="1046">-800</text>
<text x="-1076" y="-792">-800</text>
<text x="1016" y="-792">-800</text>
<text x="-626" y="-1018">-600</text>
<text x="-626" y="1046">-600</text>
<text x="-1076" y="-592">-600</text>
<text x="1016" y="-592">-600</text>
<text x="-426" y="-1018">-400</text>
<text x="-426" y="1046">-400</text>
<text x="-1076" y="-392">-400</text>
<text x="1016" y="-392">-400</text>
<text x="-226" y="-1018">-200</text>
<text x="-226" y="1046">-200</text>
<text x="-1076" y="-192">-200</text>
<text x="1016" y="-192">-200</text>
<text x="-26" y="-1018">0</text>
<text x="-26" y="1046">0</text>
<text x="-1076" y="8">0</text>
<text x="1016" y="8">0</text>
<text x="174" y="-1018">200</text>
<text x="174" y="1046">200</text>
<text x="-1076" y="208">200</text>
<text x="1016" y="208">200</text>
<text x="374" y="-1018">400</text>
<text x="374" y="1046">400</text>
<text x="-1076" y="408">400</text>
<text x="1016" y="408">400</text>
<text x="574" y="-1018">600</text>
<text x="574" y="1046">600</text>
<text x="-1076" y="608">600</text>
<text x="1016" y="608">600</text>
<text x="774" y="-1018">800</text>
<text x="774" y="1046">800</text>
<text x="-1076" y="808">800</text>
<text x="1016" y="808">800</text>
<text x="974" y="-1018">1000</text>
<text x="974" y="1046">1000</text>
<text x="-1076" y="1008">1000</text>
<text x="1016" y="1008">1000</text>
</g>
<g stroke="#b03a2e" stroke-width="1.5" opacity="0.6"><line x1="-14" y1="0" x2="14" y2="0"/><line x1="0" y1="-14" x2="0" y2="14"/></g>
<g transform="translate(1045,-1040)">
  <circle r="30" fill="#fff" stroke="#334" stroke-width="2"/>
  <path d="M0,-20 L7,10 L0,4 L-7,10 Z" fill="#b03a2e"/>
  <text x="-7" y="54" font-size="22" fill="#334">N</text>
</g>
<text x="-1060" y="-1050" font-size="24" fill="#667">诺曼底 · 2000×2000m　坐标=米（右 +x / 下 +z）　主格 200m · 副格 100m</text>
</svg>